<svg width="131" height="131" viewBox="0 0 131 131" fill="none" xmlns="http://www.w3.org/2000/svg">
<rect x="31.3442" width="104.214" height="104.214" rx="33.7596" transform="rotate(17.5037 31.3442 0)" fill="#F2F2F3"/>
<path d="M89.3232 81.2709C86.7575 85.5911 83.0899 89.1519 78.6959 91.5891C74.3019 94.0263 69.3393 95.2522 64.3159 95.1414L63.9788 95.1294C58.0458 94.9283 52.3255 92.8704 47.6242 89.2457C42.9229 85.621 39.4776 80.6122 37.7741 74.9255C36.0705 69.2388 36.1946 63.1608 38.1287 57.5484C40.0629 51.9359 43.7096 47.0719 48.5549 43.642C53.4002 40.2121 59.1997 38.3893 65.136 38.4305C71.0722 38.4717 76.8459 40.3748 81.6432 43.8715C86.4404 47.3683 90.0193 52.2824 91.8754 57.9212C93.7315 63.56 93.7713 69.639 91.989 75.3016C91.3367 77.3789 90.4449 79.3733 89.3315 81.2445L89.3232 81.2709ZM75.3468 33.7405C70.6473 32.2565 65.6851 31.7926 60.7919 32.3799C55.8986 32.9671 51.1871 34.592 46.9722 37.1459C42.7572 39.6998 39.1359 43.1239 36.3502 47.1894C33.5645 51.2549 31.6786 55.8682 30.8186 60.7209C29.9586 65.5736 30.1442 70.554 31.363 75.3292C32.5819 80.1044 34.8059 84.5645 37.8864 88.4114C40.967 92.2583 44.8331 95.4034 49.2265 97.6365C53.6198 99.8696 58.4392 101.139 63.3626 101.361L63.7698 101.38C72.1367 101.661 80.3222 98.9017 86.8114 93.6126C93.3006 88.3234 97.6542 80.8627 99.0665 72.611C100.479 64.3593 98.8543 55.8754 94.4935 48.7292C90.1327 41.5829 83.3309 36.2583 75.3468 33.7405Z" fill="black"/>
<path d="M64.4001 64.6356C64.3174 64.4802 64.2672 64.3096 64.2527 64.1342C64.2382 63.9588 64.2596 63.7822 64.3157 63.6154L67.6858 52.9294C67.7902 52.5788 68.0293 52.2839 68.3506 52.1092C68.5023 52.0231 68.6707 51.9707 68.8445 51.9554C69.0182 51.9401 69.1932 51.9624 69.3576 52.0206L69.7863 52.1558C69.9553 52.2124 70.1112 52.3025 70.2446 52.4205C70.3781 52.5386 70.4864 52.6824 70.5631 52.8432C70.6472 52.9984 70.6987 53.1691 70.7144 53.3449C70.73 53.5207 70.7095 53.6979 70.6541 53.8655L67.2841 64.5515C67.1755 64.8898 66.9378 65.1716 66.6226 65.3357C66.3074 65.4997 65.9402 65.5328 65.6008 65.4276L65.1786 65.2945C65.0105 65.2465 64.8547 65.163 64.7215 65.0497C64.5884 64.9364 64.481 64.7959 64.4067 64.6377L64.4001 64.6356ZM77.4029 56.1752C77.7164 55.2007 77.8211 54.1712 77.7104 53.1536C77.6146 52.178 77.3326 51.2299 76.8797 50.3605C76.4324 49.4863 75.8177 48.7085 75.0706 48.0712C74.2982 47.4005 73.3946 46.8981 72.4172 46.5962L70.3987 45.9596C69.4252 45.6454 68.3966 45.5385 67.3793 45.6456C66.4025 45.7428 65.4535 46.027 64.5841 46.4829C63.7129 46.9515 62.9356 47.5767 62.291 48.3271C61.6324 49.107 61.1375 50.0115 60.8358 50.9866L56.7459 63.955C54.669 66.7221 53.2905 69.9495 52.7273 73.3631L52.5343 74.2741L59.3967 73.0732L60.0519 70.9953L64.0005 69.7893L66.5427 73.0423L65.8874 75.1202L70.8193 80.0406L71.2036 79.19C72.6777 76.0631 73.3989 72.6344 73.3093 69.1786L77.4029 56.1752Z" fill="black"/>
<path d="M62.6343 74.029C60.8995 73.4819 58.4783 74.72 57.4174 78.0841C56.372 81.7749 56.2968 85.673 57.1989 89.4014L57.4665 90.3924L58.2432 89.7235C58.4309 89.5651 62.8595 85.7328 64.5612 80.337C65.6221 76.9729 64.3625 74.574 62.6343 74.029Z" fill="black"/>
</svg>
