<svg width="134" height="134" viewBox="0 0 134 134" fill="none" xmlns="http://www.w3.org/2000/svg">
<rect x="22.2554" y="133.913" width="113.854" height="113.854" rx="32.0143" transform="rotate(-101.272 22.2554 133.913)" fill="#C8D9C2"/>
<path d="M85.7169 35.2688L72.4613 68.6065L94.2038 93.6252L91.3139 96.137L68.0428 69.3598L82.1598 33.8538L85.7169 35.2688ZM71.5158 37.8046L64.7146 70.1327L81.1357 96.5097L77.8864 98.5325L60.6517 70.8509L67.769 37.0169L71.5158 37.8046ZM60.0426 39.8584L57.485 71.5597L70.4137 98.8599L66.9536 100.5L53.5865 72.274L56.226 39.5497L60.0426 39.8584ZM57.3523 101.938L53.5971 102.687L41.5288 42.1395L45.284 41.391L57.3523 101.938Z" fill="black"/>
</svg>
